<?xml version="1.0" encoding="UTF-8"?>
<svg id="Camada_2" data-name="Camada 2" xmlns="http://www.w3.org/2000/svg" viewBox="0 0 881.31 559.51">
  <defs>
    <style>
      .cls-1 {
        fill: #3b82f6;
      }

      .cls-2 {
        font-family: Poppins-Bold, Poppins;
        font-size: 221.43px;
        font-weight: 700;
        letter-spacing: 0em;
      }

      .cls-2, .cls-3 {
        fill: #f5f5f5;
      }

      .cls-3 {
        font-family: Poppins-Medium, Poppins;
        font-size: 120.91px;
        font-weight: 500;
        letter-spacing: 0em;
      }
    </style>
  </defs>
  <g id="Camada_1-2" data-name="Camada 1">
    <g>
      <g>
        <path class="cls-1" d="M0,363.54l.02,105.45c0,11.13,9.02,20.15,20.15,20.15h247.52c11.13,0,20.15-9.02,20.15-20.15v-105.44s-143.92,92.87-143.92,92.87L0,363.54Z"/>
        <polygon class="cls-1" points="249.59 0 163.44 99.23 211.34 99.23 211.34 342.1 181.37 342.1 181.46 174.72 104.96 174.72 104.86 342.1 76.52 342.1 76.51 266.28 0 266.28 0 349.96 143.11 442.14 287.83 349.96 287.84 99.23 329.53 99.23 249.59 0"/>
      </g>
      <text class="cls-2" transform="translate(340.36 349.96)"><tspan x="0" y="0">Debt</tspan></text>
      <text class="cls-3" transform="translate(351.52 489.14) scale(.94 1)"><tspan x="0" y="0">Manager</tspan></text>
    </g>
  </g>
</svg>